<svg height="512pt" viewBox="-17 0 512 512" width="512pt" xmlns="http://www.w3.org/2000/svg"><path d="m437.878906 504.285156h-397.023437c-18.300781 0-33.132813-14.835937-33.132813-33.132812v-403.890625c0-8.90625 7.21875-16.121094 16.121094-16.121094h431.046875c8.902344 0 16.121094 7.214844 16.121094 16.121094v403.890625c0 18.296875-14.835938 33.132812-33.132813 33.132812zm0 0" fill="#6990d7"/><g fill="#203e76"><path d="m94.0625 24.875v52.535156c0 .503906-.023438 1-.066406 1.492188-.761719 8.769531-8.125 15.664062-17.089844 15.664062-9.476562 0-17.152344-7.6875-17.152344-17.15625v-52.535156c0-9.476562 7.675782-17.152344 17.152344-17.152344.933594 0 1.855469.074219 2.746094.210938 3.632812.589844 6.882812 2.316406 9.382812 4.816406 3.105469 3.097656 5.027344 7.386719 5.027344 12.125zm0 0"/><path d="m160.535156 24.875v52.535156c0 .503906-.019531 1-.0625 1.492188-.761718 8.769531-8.128906 15.664062-17.089844 15.664062-9.480468 0-17.15625-7.6875-17.15625-17.15625v-52.535156c0-9.476562 7.675782-17.152344 17.15625-17.152344.929688 0 1.851563.074219 2.742188.210938 3.636719.589844 6.882812 2.316406 9.382812 4.816406 3.109376 3.097656 5.027344 7.386719 5.027344 12.125zm0 0"/><path d="m352.515625 24.875v52.535156c0 .503906-.023437 1-.066406 1.492188-.761719 8.769531-8.125 15.664062-17.089844 15.664062-9.476563 0-17.152344-7.6875-17.152344-17.15625v-52.535156c0-9.476562 7.675781-17.152344 17.152344-17.152344.933594 0 1.855469.074219 2.746094.210938 3.636719.589844 6.882812 2.316406 9.382812 4.816406 3.109375 3.097656 5.027344 7.386719 5.027344 12.125zm0 0"/><path d="m418.988281 24.875v52.535156c0 .503906-.019531 1-.0625 1.492188-.761719 8.769531-8.128906 15.664062-17.09375 15.664062-9.476562 0-17.152343-7.6875-17.152343-17.15625v-52.535156c0-9.476562 7.675781-17.152344 17.152343-17.152344.933594 0 1.855469.074219 2.746094.210938 3.636719.589844 6.882813 2.316406 9.382813 4.816406 3.109374 3.097656 5.027343 7.386719 5.027343 12.125zm0 0"/></g><path d="m94.0625 24.875v52.535156c0 .503906-.023438 1-.066406 1.492188-8.167969-1.320313-14.40625-8.394532-14.40625-16.941406v-52.535157c0-.503906.019531-.996093.0625-1.492187 3.636718.589844 6.882812 2.316406 9.382812 4.816406 3.105469 3.097656 5.027344 7.386719 5.027344 12.125zm0 0" fill="#2e5aac"/><path d="m160.535156 24.875v52.535156c0 .503906-.019531 1-.0625 1.492188-8.171875-1.320313-14.410156-8.394532-14.410156-16.941406v-52.535157c0-.503906.019531-.996093.066406-1.492187 3.632813.589844 6.882813 2.316406 9.378906 4.816406 3.109376 3.097656 5.027344 7.386719 5.027344 12.125zm0 0" fill="#2e5aac"/><path d="m352.515625 24.875v52.535156c0 .503906-.023437 1-.066406 1.492188-8.167969-1.320313-14.40625-8.394532-14.40625-16.941406v-52.535157c0-.503906.019531-.996093.0625-1.492187 3.636719.589844 6.882812 2.316406 9.382812 4.816406 3.109375 3.097656 5.027344 7.386719 5.027344 12.125zm0 0" fill="#2e5aac"/><path d="m418.988281 24.875v52.535156c0 .503906-.019531 1-.0625 1.492188-8.171875-1.320313-14.410156-8.394532-14.410156-16.941406v-52.535157c0-.503906.019531-.996093.0625-1.492187 3.636719.589844 6.886719 2.316406 9.382813 4.816406 3.109374 3.097656 5.027343 7.386719 5.027343 12.125zm0 0" fill="#2e5aac"/><path d="m7.722656 136.351562h92.65625v96.621094h-92.65625zm0 0" fill="#bacbec"/><path d="m100.378906 136.351562h92.660156v96.621094h-92.660156zm0 0" fill="#91aee2"/><path d="m193.039062 136.351562h92.65625v96.621094h-92.65625zm0 0" fill="#bacbec"/><path d="m285.695312 136.351562h92.65625v96.621094h-92.65625zm0 0" fill="#91aee2"/><path d="m378.351562 136.351562h92.660157v96.621094h-92.660157zm0 0" fill="#bacbec"/><path d="m7.722656 232.972656h92.65625v95.523438h-92.65625zm0 0" fill="#91aee2"/><path d="m100.375 232.96875h92.667969v95.53125h-92.667969zm0 0" fill="#bacbec"/><path d="m193.039062 232.972656h92.65625v95.523438h-92.65625zm0 0" fill="#91aee2"/><path d="m285.695312 232.972656h92.65625v95.523438h-92.65625zm0 0" fill="#bacbec"/><path d="m378.351562 232.972656h92.660157v95.523438h-92.660157zm0 0" fill="#91aee2"/><path d="m7.722656 328.5h92.65625v95.523438h-92.65625zm0 0" fill="#bacbec"/><path d="m100.378906 328.5h92.660156v95.523438h-92.660156zm0 0" fill="#91aee2"/><path d="m193.039062 328.5h92.65625v95.523438h-92.65625zm0 0" fill="#bacbec"/><path d="m285.695312 328.5h92.65625v95.523438h-92.65625zm0 0" fill="#91aee2"/><path d="m378.351562 328.5h92.660157v95.523438h-92.660157zm0 0" fill="#bacbec"/><path d="m454.214844 43.417969h-27.515625v-18.550781c0-13.710938-11.15625-24.867188-24.867188-24.867188-13.71875 0-24.878906 11.15625-24.878906 24.867188v18.550781h-16.726563v-18.550781c0-13.710938-11.15625-24.867188-24.867187-24.867188-13.71875 0-24.878906 11.15625-24.878906 24.867188v18.550781h-20.152344c-4.273437 0-7.71875 3.457031-7.71875 7.71875s3.445313 7.71875 7.71875 7.71875h20.152344v18.546875c0 13.722656 11.160156 24.878906 24.878906 24.878906 13.710937 0 24.867187-11.15625 24.867187-24.878906v-18.546875h16.726563v18.546875c0 13.722656 11.160156 24.878906 24.878906 24.878906 13.710938 0 24.867188-11.15625 24.867188-24.878906v-18.546875h27.515625c5.003906 0 9.078125 4.078125 9.078125 9.078125v60.699218c-4.84375 0-423.300781 0-447.851563 0v-60.699218c0-5 4.074219-9.078125 9.078125-9.078125h27.511719v18.546875c0 13.722656 11.15625 24.878906 24.867188 24.878906 13.722656 0 24.878906-11.15625 24.878906-24.878906v-18.546875h16.726562v18.546875c0 13.722656 11.160156 24.878906 24.867188 24.878906 13.722656 0 24.878906-11.15625 24.878906-24.878906v-18.546875h91.199219c4.261719 0 7.71875-3.457031 7.71875-7.71875s-3.457031-7.71875-7.71875-7.71875h-91.199219v-18.550781c0-13.710938-11.15625-24.867188-24.878906-24.867188-13.707032 0-24.867188 11.15625-24.867188 24.867188v18.550781h-16.726562v-18.550781c0-13.710938-11.15625-24.867188-24.878906-24.867188-13.710938 0-24.867188 11.15625-24.867188 24.867188v18.550781h-27.511719c-13.515625 0-24.519531 11-24.519531 24.515625v401.84375c0 23.285156 18.949219 42.222656 42.234375 42.222656h13.421875c4.261719 0 7.71875-3.449219 7.71875-7.71875 0-4.261719-3.457031-7.722656-7.71875-7.722656h-13.421875c-14.773437 0-26.792969-12.011719-26.792969-26.78125v-38.03125h447.851563v38.03125c0 14.769531-12.023438 26.78125-26.792969 26.78125h-349.964844c-4.261718 0-7.722656 3.460937-7.722656 7.722656 0 4.269531 3.460938 7.71875 7.722656 7.71875h349.964844c23.28125 0 42.234375-18.9375 42.234375-42.222656 0-16.152344 0-384.683594 0-401.84375 0-13.515625-11.003906-24.515625-24.519531-24.515625zm-112.195313 40.65625c-1.699219 1.707031-4.066406 2.769531-6.660156 2.769531-5.207031 0-9.4375-4.230469-9.4375-9.441406 0-26.914063 0-25.59375 0-52.535156 0-5.195313 4.230469-9.425782 9.4375-9.425782 5.199219 0 9.429687 4.230469 9.429687 9.425782 0 56.785156 1.023438 55.414062-2.769531 59.207031zm69.242188-6.671875c0 5.210937-4.230469 9.441406-9.429688 9.441406-5.207031 0-9.4375-4.230469-9.4375-9.441406 0-26.925782 0-25.59375 0-52.535156 0-5.195313 4.230469-9.425782 9.4375-9.425782 5.199219 0 9.429688 4.230469 9.429688 9.425782zm-277.316407-52.535156c0-5.195313 4.230469-9.425782 9.425782-9.425782 5.210937 0 9.441406 4.230469 9.441406 9.425782v52.535156c0 5.210937-4.230469 9.441406-9.441406 9.441406-5.195313 0-9.425782-4.230469-9.425782-9.441406 0-15.730469 0-36.796875 0-52.535156zm-66.472656 0c0-5.195313 4.230469-9.425782 9.425782-9.425782 5.210937 0 9.441406 4.230469 9.441406 9.425782v52.535156c0 5.210937-4.230469 9.441406-9.441406 9.441406-5.195313 0-9.425782-4.230469-9.425782-9.441406 0-15.730469 0-36.796875 0-52.535156zm25.1875 391.4375h-77.21875v-80.089844h77.21875zm0-95.53125h-77.21875v-80.078126h77.21875zm0-96.621094h-77.21875c0-16.332032 0-63.9375 0-80.078125h77.21875zm92.65625 192.152344h-77.21875v-80.089844h77.21875zm0-95.53125h-77.21875v-80.078126h77.21875zm0-96.621094h-77.21875v-80.078125h77.21875zm92.660156 192.152344h-77.21875v-80.089844h77.21875zm0-95.53125h-77.21875v-80.078126h77.21875zm0-96.621094h-77.21875v-80.078125h77.21875zm92.65625 192.152344h-77.21875v-80.089844h77.21875zm0-95.53125h-77.21875v-80.078126h77.21875zm0-96.621094h-77.21875v-80.078125h77.21875zm92.660157 192.152344h-77.21875v-80.089844h77.21875zm0-95.53125h-77.21875v-80.078126h77.21875zm0-96.621094h-77.21875v-80.078125h77.21875zm0 0"/><path d="m317.304688 309.578125c3.25 3.25 8.640624 2.964844 11.515624-.675781l36.773438-46.574219c2.640625-3.347656 2.070312-8.203125-1.277344-10.84375s-8.199218-2.070313-10.839844 1.273437l-31.394531 39.765626-11.632812-11.636719c-3.015625-3.015625-7.902344-3.015625-10.917969 0s-3.015625 7.902343 0 10.917969zm0 0"/><path d="m45.535156 213.027344c2.371094 0 4.597656-1.089844 6.058594-2.9375l36.769531-46.578125c2.640625-3.34375 2.070313-8.199219-1.273437-10.839844-3.347656-2.640625-8.203125-2.074219-10.84375 1.273437l-31.390625 39.761719-11.632813-11.632812c-3.015625-3.015625-7.90625-3.015625-10.917968 0-3.015626 3.015625-3.015626 7.902343 0 10.917969 18.984374 18.984374 19 20.035156 23.230468 20.035156zm0 0"/><path d="m137.398438 406.28125c2.375 0 4.601562-1.089844 6.0625-2.9375l36.769531-46.578125c2.640625-3.34375 2.070312-8.199219-1.277344-10.84375-3.34375-2.640625-8.199219-2.070313-10.839844 1.277344l-31.394531 39.761719-11.632812-11.632813c-3.015626-3.015625-7.902344-3.015625-10.917969 0s-3.015625 7.902344 0 10.914063c18.984375 18.988281 19 20.039062 23.230469 20.039062zm0 0"/></svg>